<?xml version="1.0" encoding="UTF-8"?>
<!DOCTYPE svg PUBLIC "-//W3C//DTD SVG 1.1//EN" "http://www.w3.org/Graphics/SVG/1.1/DTD/svg11.dtd">
<svg xmlns="http://www.w3.org/2000/svg" version="1.1" width="1350px" height="1350px" style="shape-rendering:geometricPrecision; text-rendering:geometricPrecision; image-rendering:optimizeQuality; fill-rule:evenodd; clip-rule:evenodd" xmlns:xlink="http://www.w3.org/1999/xlink">
<g><path style="opacity:0.998" fill="#02bfff" d="M 691.5,275.5 C 818.096,272.74 923.929,317.74 1009,410.5C 1098.81,518.1 1127.48,640.433 1095,777.5C 1060.42,897.402 986.921,984.236 874.5,1038C 762.833,1085.91 651.166,1085.25 539.5,1036C 440.248,987.75 371.415,911.916 333,808.5C 290.57,677.985 307.57,555.985 384,442.5C 460.799,340.173 563.299,284.506 691.5,275.5 Z"/></g>
<g><path style="opacity:1" fill="#f8fcff" d="M 600.5,477.5 C 599.549,478.919 599.216,480.585 599.5,482.5C 601.167,482.5 602.833,482.5 604.5,482.5C 604.5,483.833 604.5,485.167 604.5,486.5C 602.833,486.5 601.167,486.5 599.5,486.5C 599.5,493.167 599.5,499.833 599.5,506.5C 597.5,506.5 595.5,506.5 593.5,506.5C 593.5,499.833 593.5,493.167 593.5,486.5C 592.167,486.5 590.833,486.5 589.5,486.5C 589.5,485.167 589.5,483.833 589.5,482.5C 590.5,482.5 591.5,482.5 592.5,482.5C 591.664,473.004 595.998,469.004 605.5,470.5C 605.5,472.167 605.5,473.833 605.5,475.5C 603.219,475.077 601.552,475.744 600.5,477.5 Z"/></g>
<g><path style="opacity:1" fill="#effaff" d="M 609.5,470.5 C 611.5,470.5 613.5,470.5 615.5,470.5C 615.5,472.167 615.5,473.833 615.5,475.5C 613.5,475.5 611.5,475.5 609.5,475.5C 609.5,473.833 609.5,472.167 609.5,470.5 Z"/></g>
<g><path style="opacity:1" fill="#f1faff" d="M 795.5,470.5 C 797.5,470.5 799.5,470.5 801.5,470.5C 801.5,472.167 801.5,473.833 801.5,475.5C 799.5,475.5 797.5,475.5 795.5,475.5C 795.5,473.833 795.5,472.167 795.5,470.5 Z"/></g>
<g><path style="opacity:1" fill="#fbfdff" d="M 609.5,482.5 C 611.5,482.5 613.5,482.5 615.5,482.5C 615.5,490.833 615.5,499.167 615.5,507.5C 613.5,507.5 611.5,507.5 609.5,507.5C 609.5,499.167 609.5,490.833 609.5,482.5 Z"/></g>
<g><path style="opacity:1" fill="#c2edff" d="M 628.5,482.5 C 626.5,482.5 624.5,482.5 622.5,482.5C 622.5,490.5 622.5,498.5 622.5,506.5C 624.5,506.5 626.5,506.5 628.5,506.5C 626.393,507.468 624.059,507.802 621.5,507.5C 621.5,498.833 621.5,490.167 621.5,481.5C 624.059,481.198 626.393,481.532 628.5,482.5 Z"/></g>
<g><path style="opacity:1" fill="#fbfdff" d="M 643.5,487.5 C 643.5,493.833 643.5,500.167 643.5,506.5C 641.5,506.5 639.5,506.5 637.5,506.5C 637.666,500.491 637.499,494.491 637,488.5C 634.333,485.833 631.667,485.833 629,488.5C 628.501,494.491 628.334,500.491 628.5,506.5C 626.5,506.5 624.5,506.5 622.5,506.5C 622.5,498.5 622.5,490.5 622.5,482.5C 624.5,482.5 626.5,482.5 628.5,482.5C 628.369,483.239 628.536,483.906 629,484.5C 631.653,481.806 634.82,480.973 638.5,482C 641.079,483.076 642.746,484.909 643.5,487.5 Z"/></g>
<g><path style="opacity:1" fill="#b8ebff" d="M 655.5,482.5 C 653.5,482.5 651.5,482.5 649.5,482.5C 649.5,490.5 649.5,498.5 649.5,506.5C 651.5,506.5 653.5,506.5 655.5,506.5C 653.393,507.468 651.059,507.802 648.5,507.5C 648.5,498.833 648.5,490.167 648.5,481.5C 651.059,481.198 653.393,481.532 655.5,482.5 Z"/></g>
<g><path style="opacity:1" fill="#f9fdff" d="M 655.5,506.5 C 653.5,506.5 651.5,506.5 649.5,506.5C 649.5,498.5 649.5,490.5 649.5,482.5C 651.5,482.5 653.5,482.5 655.5,482.5C 655.369,483.376 655.702,484.043 656.5,484.5C 662.437,479.963 667.27,480.963 671,487.5C 671.5,494.158 671.666,500.825 671.5,507.5C 669.167,507.5 666.833,507.5 664.5,507.5C 664.666,501.158 664.5,494.825 664,488.5C 661.333,485.833 658.667,485.833 656,488.5C 655.501,494.491 655.334,500.491 655.5,506.5 Z"/></g>
<g><path style="opacity:1" fill="#f5fbff" d="M 682.5,481.5 C 695.895,480.392 701.395,486.392 699,499.5C 695.422,506.816 689.589,509.316 681.5,507C 676.261,502.282 674.428,496.449 676,489.5C 677.305,486.039 679.471,483.372 682.5,481.5 Z"/></g>
<g><path style="opacity:1" fill="#fbfdff" d="M 723.5,482.5 C 725.5,482.5 727.5,482.5 729.5,482.5C 729.177,488.69 729.51,494.69 730.5,500.5C 731.312,501.993 732.645,502.66 734.5,502.5C 736.355,502.66 737.688,501.993 738.5,500.5C 739.49,494.69 739.823,488.69 739.5,482.5C 741.167,482.5 742.833,482.5 744.5,482.5C 744.5,490.5 744.5,498.5 744.5,506.5C 742.833,506.5 741.167,506.5 739.5,506.5C 739.631,505.624 739.298,504.957 738.5,504.5C 733.857,508.323 729.357,508.323 725,504.5C 723.571,497.281 723.071,489.947 723.5,482.5 Z"/></g>
<g><path style="opacity:1" fill="#87deff" d="M 723.5,482.5 C 725.607,481.532 727.941,481.198 730.5,481.5C 730.5,487.833 730.5,494.167 730.5,500.5C 729.51,494.69 729.177,488.69 729.5,482.5C 727.5,482.5 725.5,482.5 723.5,482.5 Z"/></g>
<g><path style="opacity:1" fill="#c3eeff" d="M 739.5,506.5 C 741.167,506.5 742.833,506.5 744.5,506.5C 744.5,498.5 744.5,490.5 744.5,482.5C 742.833,482.5 741.167,482.5 739.5,482.5C 739.823,488.69 739.49,494.69 738.5,500.5C 738.5,494.167 738.5,487.833 738.5,481.5C 740.833,481.5 743.167,481.5 745.5,481.5C 745.5,490.167 745.5,498.833 745.5,507.5C 743.265,507.795 741.265,507.461 739.5,506.5 Z"/></g>
<g><path style="opacity:1" fill="#f3fbff" d="M 766.5,482.5 C 768.5,482.5 770.5,482.5 772.5,482.5C 772.5,491.5 772.5,500.5 772.5,509.5C 771.577,512.838 769.577,515.338 766.5,517C 762.167,517.667 757.833,517.667 753.5,517C 752.228,514.956 752.561,513.122 754.5,511.5C 757.438,512.575 760.438,512.741 763.5,512C 765.515,510.445 765.848,508.611 764.5,506.5C 754.823,509.511 749.823,505.844 749.5,495.5C 749.674,490.13 751.674,485.63 755.5,482C 759.389,480.86 762.722,481.693 765.5,484.5C 766.298,484.043 766.631,483.376 766.5,482.5 Z"/></g>
<g><path style="opacity:1" fill="#6fd7ff" d="M 766.5,482.5 C 768.607,481.532 770.941,481.198 773.5,481.5C 773.827,491.015 773.494,500.348 772.5,509.5C 772.5,500.5 772.5,491.5 772.5,482.5C 770.5,482.5 768.5,482.5 766.5,482.5 Z"/></g>
<g><path style="opacity:1" fill="#fbfdff" d="M 785.5,489.5 C 784.511,494.975 784.178,500.642 784.5,506.5C 782.5,506.5 780.5,506.5 778.5,506.5C 778.5,498.5 778.5,490.5 778.5,482.5C 781.144,482.16 783.477,482.827 785.5,484.5C 786.976,482.429 788.976,481.429 791.5,481.5C 791.5,483.5 791.5,485.5 791.5,487.5C 788.99,487.054 786.99,487.72 785.5,489.5 Z"/></g>
<g><path style="opacity:1" fill="#70d8ff" d="M 801.5,482.5 C 799.5,482.5 797.5,482.5 795.5,482.5C 795.5,490.833 795.5,499.167 795.5,507.5C 794.507,499.016 794.174,490.349 794.5,481.5C 797.059,481.198 799.393,481.532 801.5,482.5 Z"/></g>
<g><path style="opacity:1" fill="#f9fdff" d="M 801.5,482.5 C 801.5,490.833 801.5,499.167 801.5,507.5C 799.5,507.5 797.5,507.5 795.5,507.5C 795.5,499.167 795.5,490.833 795.5,482.5C 797.5,482.5 799.5,482.5 801.5,482.5 Z"/></g>
<g><path style="opacity:1" fill="#f1faff" d="M 822.5,500.5 C 825.012,498.821 827.012,499.155 828.5,501.5C 827.723,504.112 826.056,505.945 823.5,507C 812.894,509.561 807.227,505.394 806.5,494.5C 807.699,483.392 813.699,479.558 824.5,483C 827.712,485.019 829.378,487.853 829.5,491.5C 827.167,491.5 824.833,491.5 822.5,491.5C 821.021,485.755 818.187,485.089 814,489.5C 813.022,493.9 813.522,498.067 815.5,502C 817.5,502.667 819.5,502.667 821.5,502C 822.056,501.617 822.389,501.117 822.5,500.5 Z"/></g>
<g><path style="opacity:1" fill="#7edaff" d="M 600.5,477.5 C 600.5,478.833 600.5,480.167 600.5,481.5C 602.5,481.5 604.5,481.5 606.5,481.5C 606.5,483.5 606.5,485.5 606.5,487.5C 604.5,487.5 602.5,487.5 600.5,487.5C 600.5,494.167 600.5,500.833 600.5,507.5C 597.833,507.5 595.167,507.5 592.5,507.5C 592.5,500.833 592.5,494.167 592.5,487.5C 591.209,487.737 590.209,487.404 589.5,486.5C 590.833,486.5 592.167,486.5 593.5,486.5C 593.5,493.167 593.5,499.833 593.5,506.5C 595.5,506.5 597.5,506.5 599.5,506.5C 599.5,499.833 599.5,493.167 599.5,486.5C 601.167,486.5 602.833,486.5 604.5,486.5C 604.5,485.167 604.5,483.833 604.5,482.5C 602.833,482.5 601.167,482.5 599.5,482.5C 599.216,480.585 599.549,478.919 600.5,477.5 Z"/></g>
<g><path style="opacity:1" fill="#26c2ff" d="M 684.5,486.5 C 687.652,485.959 690.152,486.959 692,489.5C 692.978,493.9 692.478,498.067 690.5,502C 688.231,502.758 686.064,502.591 684,501.5C 681.858,496.335 682.024,491.335 684.5,486.5 Z"/></g>
<g><path style="opacity:1" fill="#2ec3ff" d="M 759.5,486.5 C 761.722,486.178 763.556,486.845 765,488.5C 765.799,493.087 765.632,497.587 764.5,502C 761.653,502.944 759.153,502.444 757,500.5C 755.718,495.295 756.551,490.628 759.5,486.5 Z"/></g>
<g><path style="opacity:1" fill="#b9ebff" d="M 643.5,487.5 C 644.491,493.979 644.824,500.646 644.5,507.5C 641.941,507.802 639.607,507.468 637.5,506.5C 639.5,506.5 641.5,506.5 643.5,506.5C 643.5,500.167 643.5,493.833 643.5,487.5 Z"/></g>
<g><path style="opacity:1" fill="#fdfeff" d="M 716.5,490.5 C 716.5,491.833 716.5,493.167 716.5,494.5C 712.5,494.5 708.5,494.5 704.5,494.5C 704.5,493.167 704.5,491.833 704.5,490.5C 708.5,490.5 712.5,490.5 716.5,490.5 Z"/></g>
<g><path style="opacity:1" fill="#92e0ff" d="M 778.5,482.5 C 778.5,490.5 778.5,498.5 778.5,506.5C 780.5,506.5 782.5,506.5 784.5,506.5C 784.178,500.642 784.511,494.975 785.5,489.5C 785.5,495.5 785.5,501.5 785.5,507.5C 782.833,507.5 780.167,507.5 777.5,507.5C 777.174,498.983 777.507,490.65 778.5,482.5 Z"/></g>
<g><path style="opacity:1" fill="#c8eeff" d="M 716.5,490.5 C 717.451,491.919 717.784,493.585 717.5,495.5C 712.968,495.818 708.634,495.485 704.5,494.5C 708.5,494.5 712.5,494.5 716.5,494.5C 716.5,493.167 716.5,491.833 716.5,490.5 Z"/></g>
<g><path style="opacity:1" fill="#a6e5ff" d="M 828.5,501.5 C 827.012,499.155 825.012,498.821 822.5,500.5C 824.279,498.656 826.612,497.99 829.5,498.5C 829.737,499.791 829.404,500.791 828.5,501.5 Z"/></g>
<g><path style="opacity:1" fill="#e3f7ff" d="M 843.5,545.5 C 808.457,545.18 773.457,545.513 738.5,546.5C 738.611,545.883 738.944,545.383 739.5,545C 774.336,544.169 809.002,544.336 843.5,545.5 Z"/></g>
<g><path style="opacity:1" fill="#fafdfe" d="M 682.5,601.5 C 700.326,602.497 718.326,602.83 736.5,602.5C 736.5,584.5 736.5,566.5 736.5,548.5C 736.833,547.5 737.5,546.833 738.5,546.5C 773.457,545.513 808.457,545.18 843.5,545.5C 845.017,545.511 846.184,546.177 847,547.5C 847.667,581.833 847.667,616.167 847,650.5C 846.167,651.333 845.333,652.167 844.5,653C 826.17,653.5 807.836,653.667 789.5,653.5C 789.5,667.833 789.5,682.167 789.5,696.5C 808.201,696.205 826.867,696.538 845.5,697.5C 845.987,698.473 846.487,699.473 847,700.5C 847.5,734.165 847.667,767.832 847.5,801.5C 846.375,803.129 845.041,804.629 843.5,806C 809.167,806.667 774.833,806.667 740.5,806C 739,805.167 737.833,804 737,802.5C 736.5,784.503 736.333,766.503 736.5,748.5C 718.5,748.5 700.5,748.5 682.5,748.5C 682.667,766.17 682.5,783.836 682,801.5C 681.535,802.931 680.701,804.097 679.5,805C 644.252,806.653 608.918,806.986 573.5,806C 572.667,805.167 571.833,804.333 571,803.5C 570.167,768.495 570.333,733.495 571.5,698.5C 572.308,698.192 572.975,697.692 573.5,697C 591.83,696.5 610.164,696.333 628.5,696.5C 629.496,682.343 629.829,668.01 629.5,653.5C 611.167,653.5 592.833,653.5 574.5,653.5C 573.206,652.71 572.039,651.71 571,650.5C 570.333,616.167 570.333,581.833 571,547.5C 571.903,546.299 573.069,545.465 574.5,545C 609.585,544.014 644.585,544.347 679.5,546C 680.333,546.833 681.167,547.667 682,548.5C 682.5,566.164 682.667,583.83 682.5,601.5 Z"/></g>
<g><path style="opacity:1" fill="#17c0fe" d="M 582.5,556.5 C 611.5,556.5 640.5,556.5 669.5,556.5C 669.5,571.833 669.5,587.167 669.5,602.5C 656.829,602.333 644.162,602.5 631.5,603C 631,603.5 630.5,604 630,604.5C 629.5,616.829 629.333,629.162 629.5,641.5C 613.833,641.5 598.167,641.5 582.5,641.5C 582.5,613.167 582.5,584.833 582.5,556.5 Z"/></g>
<g><path style="opacity:1" fill="#0fbffe" d="M 834.5,641.5 C 819.833,641.5 805.167,641.5 790.5,641.5C 790.667,629.495 790.5,617.495 790,605.5C 788.961,604.29 787.794,603.29 786.5,602.5C 774.011,601.505 761.344,601.171 748.5,601.5C 748.5,586.833 748.5,572.167 748.5,557.5C 777.167,557.5 805.833,557.5 834.5,557.5C 834.5,585.5 834.5,613.5 834.5,641.5 Z"/></g>
<g><path style="opacity:1" fill="#74daff" d="M 834.5,641.5 C 834.5,613.5 834.5,585.5 834.5,557.5C 805.833,557.5 777.167,557.5 748.5,557.5C 748.5,572.167 748.5,586.833 748.5,601.5C 761.344,601.171 774.011,601.505 786.5,602.5C 773.5,602.5 760.5,602.5 747.5,602.5C 747.5,587.167 747.5,571.833 747.5,556.5C 776.833,556.5 806.167,556.5 835.5,556.5C 835.831,585.005 835.498,613.338 834.5,641.5 Z"/></g>
<g><path style="opacity:1" fill="#fbfdff" d="M 645.5,586.5 C 633.833,586.5 622.167,586.5 610.5,586.5C 610.5,598.5 610.5,610.5 610.5,622.5C 606.71,626.433 602.876,626.433 599,622.5C 598.032,606.741 598.365,591.074 600,575.5C 615.759,574.343 631.592,574.176 647.5,575C 651.774,579.789 651.108,583.623 645.5,586.5 Z"/></g>
<g><path style="opacity:1" fill="#fcfeff" d="M 808.5,622.5 C 808.5,610.5 808.5,598.5 808.5,586.5C 795.833,586.5 783.167,586.5 770.5,586.5C 766.673,582.585 766.673,578.752 770.5,575C 786.167,574.333 801.833,574.333 817.5,575C 818,575.5 818.5,576 819,576.5C 819.667,592.167 819.667,607.833 819,623.5C 816.503,625.478 813.669,625.978 810.5,625C 809.619,624.292 808.953,623.458 808.5,622.5 Z"/></g>
<g><path style="opacity:1" fill="#6ad7fe" d="M 645.5,586.5 C 634.346,587.495 623.012,587.828 611.5,587.5C 611.828,599.345 611.495,611.012 610.5,622.5C 610.5,610.5 610.5,598.5 610.5,586.5C 622.167,586.5 633.833,586.5 645.5,586.5 Z"/></g>
<g><path style="opacity:1" fill="#6ed9ff" d="M 770.5,586.5 C 783.167,586.5 795.833,586.5 808.5,586.5C 808.5,598.5 808.5,610.5 808.5,622.5C 807.505,611.012 807.172,599.345 807.5,587.5C 794.989,587.829 782.655,587.495 770.5,586.5 Z"/></g>
<g><path style="opacity:1" fill="#46ceff" d="M 736.5,548.5 C 736.5,566.5 736.5,584.5 736.5,602.5C 718.326,602.83 700.326,602.497 682.5,601.5C 700.167,601.5 717.833,601.5 735.5,601.5C 735.17,583.659 735.503,565.992 736.5,548.5 Z"/></g>
<g><path style="opacity:1" fill="#02bffe" d="M 641.5,615.5 C 686.833,615.5 732.167,615.5 777.5,615.5C 777.5,655.833 777.5,696.167 777.5,736.5C 732.167,736.5 686.833,736.5 641.5,736.5C 641.5,696.167 641.5,655.833 641.5,615.5 Z"/></g>
<g><path style="opacity:1" fill="#8ae0fe" d="M 641.5,615.5 C 686.997,614.501 732.664,614.168 778.5,614.5C 778.832,655.337 778.499,696.003 777.5,736.5C 777.5,696.167 777.5,655.833 777.5,615.5C 732.167,615.5 686.833,615.5 641.5,615.5 Z"/></g>
<g><path style="opacity:1" fill="#59d2ff" d="M 574.5,653.5 C 592.833,653.5 611.167,653.5 629.5,653.5C 629.829,668.01 629.496,682.343 628.5,696.5C 628.5,682.5 628.5,668.5 628.5,654.5C 610.326,654.83 592.326,654.497 574.5,653.5 Z"/></g>
<g><path style="opacity:1" fill="#61d5ff" d="M 845.5,697.5 C 846.75,697.577 847.583,698.244 848,699.5C 848.831,733.669 848.664,767.669 847.5,801.5C 847.667,767.832 847.5,734.165 847,700.5C 846.487,699.473 845.987,698.473 845.5,697.5 Z"/></g>
<g><path style="opacity:1" fill="#0abfff" d="M 582.5,709.5 C 597.833,709.5 613.167,709.5 628.5,709.5C 628.333,720.838 628.5,732.172 629,743.5C 629.309,744.766 629.809,745.933 630.5,747C 643.401,748.462 656.401,748.962 669.5,748.5C 669.5,763.5 669.5,778.5 669.5,793.5C 640.5,793.5 611.5,793.5 582.5,793.5C 582.5,765.5 582.5,737.5 582.5,709.5 Z"/></g>
<g><path style="opacity:1" fill="#11bffe" d="M 790.5,709.5 C 805.167,709.5 819.833,709.5 834.5,709.5C 834.5,737.167 834.5,764.833 834.5,792.5C 806.167,792.5 777.833,792.5 749.5,792.5C 749.5,777.833 749.5,763.167 749.5,748.5C 761.838,748.667 774.171,748.5 786.5,748C 787.333,747.167 788.167,746.333 789,745.5C 789.169,733.326 789.669,721.326 790.5,709.5 Z"/></g>
<g><path style="opacity:1" fill="#8ce0ff" d="M 790.5,709.5 C 805.324,708.504 820.324,708.171 835.5,708.5C 835.5,737.167 835.5,765.833 835.5,794.5C 806.329,794.831 777.329,794.498 748.5,793.5C 777.338,793.831 806.005,793.498 834.5,792.5C 834.5,764.833 834.5,737.167 834.5,709.5C 819.833,709.5 805.167,709.5 790.5,709.5 Z"/></g>
<g><path style="opacity:1" fill="#fafdff" d="M 610.5,727.5 C 610.5,740.167 610.5,752.833 610.5,765.5C 622.167,765.5 633.833,765.5 645.5,765.5C 649.637,767.108 651.137,770.108 650,774.5C 648.871,776.141 647.371,777.141 645.5,777.5C 631.163,777.667 616.829,777.5 602.5,777C 601.756,775.961 600.756,775.461 599.5,775.5C 598.35,759.574 598.183,743.574 599,727.5C 602.832,724.875 606.665,724.875 610.5,727.5 Z"/></g>
<g><path style="opacity:1" fill="#fbfdff" d="M 819.5,727.5 C 819.667,743.503 819.5,759.503 819,775.5C 818.005,776.066 817.172,776.733 816.5,777.5C 800.83,777.667 785.163,777.5 769.5,777C 766.905,772.937 767.239,769.104 770.5,765.5C 783.167,765.5 795.833,765.5 808.5,765.5C 808.5,753.167 808.5,740.833 808.5,728.5C 811.77,724.893 815.437,724.56 819.5,727.5 Z"/></g>
<g><path style="opacity:1" fill="#77daff" d="M 819.5,727.5 C 820.662,743.661 820.828,759.995 820,776.5C 818.989,777.337 817.822,777.67 816.5,777.5C 817.172,776.733 818.005,776.066 819,775.5C 819.5,759.503 819.667,743.503 819.5,727.5 Z"/></g>
<g><path style="opacity:1" fill="#45cdff" d="M 610.5,727.5 C 611.495,739.655 611.829,751.989 611.5,764.5C 623.012,764.172 634.346,764.505 645.5,765.5C 633.833,765.5 622.167,765.5 610.5,765.5C 610.5,752.833 610.5,740.167 610.5,727.5 Z"/></g>
<g><path style="opacity:1" fill="#56d1ff" d="M 808.5,728.5 C 808.5,740.833 808.5,753.167 808.5,765.5C 795.833,765.5 783.167,765.5 770.5,765.5C 782.655,764.505 794.989,764.171 807.5,764.5C 807.172,752.322 807.505,740.322 808.5,728.5 Z"/></g>
<g><path style="opacity:1" fill="#9fe6ff" d="M 599.5,775.5 C 600.756,775.461 601.756,775.961 602.5,777C 616.829,777.5 631.163,777.667 645.5,777.5C 631.006,778.661 616.339,778.828 601.5,778C 600.619,777.292 599.953,776.458 599.5,775.5 Z"/></g>
<g><path style="opacity:1" fill="#25c7ff" d="M 749.5,748.5 C 749.5,763.167 749.5,777.833 749.5,792.5C 777.833,792.5 806.167,792.5 834.5,792.5C 806.005,793.498 777.338,793.831 748.5,793.5C 748.171,778.324 748.504,763.324 749.5,748.5 Z"/></g>
<g><path style="opacity:1" fill="#5cd2ff" d="M 591.5,860.5 C 591.5,852.5 591.5,844.5 591.5,836.5C 590.167,836.5 588.833,836.5 587.5,836.5C 587.806,839.385 587.473,842.052 586.5,844.5C 586.5,841.5 586.5,838.5 586.5,835.5C 588.5,835.5 590.5,835.5 592.5,835.5C 592.826,844.017 592.493,852.35 591.5,860.5 Z"/></g>
<g><path style="opacity:1" fill="#54ceff" d="M 671.5,844.5 C 670.527,842.052 670.194,839.385 670.5,836.5C 669.167,836.5 667.833,836.5 666.5,836.5C 666.5,844.5 666.5,852.5 666.5,860.5C 665.507,852.35 665.174,844.017 665.5,835.5C 667.5,835.5 669.5,835.5 671.5,835.5C 671.5,838.5 671.5,841.5 671.5,844.5 Z"/></g>
<g><path style="opacity:1" fill="#f4fcff" d="M 714.5,836.5 C 719.833,837.167 719.833,837.833 714.5,838.5C 714.5,837.833 714.5,837.167 714.5,836.5 Z"/></g>
<g><path style="opacity:1" fill="#99e2ff" d="M 714.5,836.5 C 715.919,835.549 717.585,835.216 719.5,835.5C 719.5,836.833 719.5,838.167 719.5,839.5C 717.585,839.784 715.919,839.451 714.5,838.5C 719.833,837.833 719.833,837.167 714.5,836.5 Z"/></g>
<g><path style="opacity:1" fill="#edf9ff" d="M 613.5,839.5 C 615.167,839.5 616.833,839.5 618.5,839.5C 618.449,841.57 619.115,843.403 620.5,845C 619.375,847.175 618.708,849.509 618.5,852C 618.883,854.951 619.549,857.785 620.5,860.5C 617.956,860.896 615.789,860.229 614,858.5C 613.969,853.812 613.136,849.312 611.5,845C 612.885,843.403 613.551,841.57 613.5,839.5 Z"/></g>
<g><path style="opacity:1" fill="#eff9ff" d="M 591.5,860.5 C 587.573,859.934 583.573,859.767 579.5,860C 578.667,859.167 577.833,858.333 577,857.5C 576.333,853.833 576.333,850.167 577,846.5C 579.645,843.42 582.812,842.753 586.5,844.5C 587.473,842.052 587.806,839.385 587.5,836.5C 588.833,836.5 590.167,836.5 591.5,836.5C 591.5,844.5 591.5,852.5 591.5,860.5 Z"/></g>
<g><path style="opacity:1" fill="#e9f8ff" d="M 599.5,843.5 C 603.192,842.971 606.358,843.971 609,846.5C 609.499,851.155 609.666,855.821 609.5,860.5C 607.278,860.822 605.444,860.155 604,858.5C 597,862.5 594,860.5 595,852.5C 597.826,850.66 600.993,849.994 604.5,850.5C 604.915,848.052 603.915,846.719 601.5,846.5C 599.666,847.754 597.666,848.421 595.5,848.5C 595.408,845.6 596.741,843.933 599.5,843.5 Z"/></g>
<g><path style="opacity:1" fill="#ecf9ff" d="M 628.5,843.5 C 632.192,842.971 635.358,843.971 638,846.5C 638.499,851.155 638.666,855.821 638.5,860.5C 636.278,860.822 634.444,860.155 633,858.5C 630,861.167 627,861.167 624,858.5C 623.247,851.59 626.413,848.923 633.5,850.5C 633.915,848.052 632.915,846.719 630.5,846.5C 628.666,847.754 626.666,848.421 624.5,848.5C 624.408,845.6 625.741,843.933 628.5,843.5 Z"/></g>
<g><path style="opacity:1" fill="#edf9ff" d="M 651.5,843.5 C 654.978,843.184 658.312,843.684 661.5,845C 664.179,846.789 664.013,847.955 661,848.5C 659.145,847.756 657.479,846.756 656,845.5C 653.5,846.333 653,847.833 654.5,850C 658.708,850.072 661.708,851.906 663.5,855.5C 662.194,859.161 659.527,860.828 655.5,860.5C 651.643,860.971 649.643,859.305 649.5,855.5C 652.436,856.406 655.436,857.072 658.5,857.5C 658.67,856.178 658.337,855.011 657.5,854C 649.973,853.354 647.973,849.854 651.5,843.5 Z"/></g>
<g><path style="opacity:1" fill="#f2fbff" d="M 671.5,844.5 C 674.705,842.979 677.705,843.312 680.5,845.5C 681.448,850.435 681.781,855.435 681.5,860.5C 679.833,860.5 678.167,860.5 676.5,860.5C 676.666,856.154 676.499,851.821 676,847.5C 674.333,846.167 672.667,846.167 671,847.5C 670.501,851.821 670.334,856.154 670.5,860.5C 669.167,860.5 667.833,860.5 666.5,860.5C 666.5,852.5 666.5,844.5 666.5,836.5C 667.833,836.5 669.167,836.5 670.5,836.5C 670.194,839.385 670.527,842.052 671.5,844.5 Z"/></g>
<g><path style="opacity:1" fill="#eaf8ff" d="M 689.5,843.5 C 693.192,842.971 696.358,843.971 699,846.5C 699.499,851.155 699.666,855.821 699.5,860.5C 696.156,859.382 692.822,859.382 689.5,860.5C 685.011,860.167 683.511,857.833 685,853.5C 685.308,852.692 685.808,852.025 686.5,851.5C 689.084,850.607 691.751,850.274 694.5,850.5C 694.5,849.167 694.5,847.833 694.5,846.5C 691.5,847.167 688.5,847.833 685.5,848.5C 685.408,845.6 686.741,843.933 689.5,843.5 Z"/></g>
<g><path style="opacity:1" fill="#c1ecff" d="M 706.5,844.5 C 705.5,844.5 704.5,844.5 703.5,844.5C 703.5,849.5 703.5,854.5 703.5,859.5C 704.5,859.5 705.5,859.5 706.5,859.5C 706.185,855.629 706.518,851.962 707.5,848.5C 707.5,852.5 707.5,856.5 707.5,860.5C 705.833,860.5 704.167,860.5 702.5,860.5C 702.5,854.833 702.5,849.167 702.5,843.5C 704.099,843.232 705.432,843.566 706.5,844.5 Z"/></g>
<g><path style="opacity:1" fill="#fbfdff" d="M 707.5,848.5 C 706.518,851.962 706.185,855.629 706.5,859.5C 705.5,859.5 704.5,859.5 703.5,859.5C 703.5,854.5 703.5,849.5 703.5,844.5C 704.5,844.5 705.5,844.5 706.5,844.5C 707.117,844.611 707.617,844.944 708,845.5C 708.71,844.027 709.876,843.36 711.5,843.5C 711.5,844.5 711.5,845.5 711.5,846.5C 709.62,846.229 708.287,846.896 707.5,848.5 Z"/></g>
<g><path style="opacity:1" fill="#bbecff" d="M 714.5,843.5 C 716.167,843.5 717.833,843.5 719.5,843.5C 719.5,849.167 719.5,854.833 719.5,860.5C 717.833,860.5 716.167,860.5 714.5,860.5C 714.5,854.833 714.5,849.167 714.5,843.5 Z"/></g>
<g><path style="opacity:1" fill="#fbfeff" d="M 715.5,844.5 C 716.5,844.5 717.5,844.5 718.5,844.5C 718.5,849.5 718.5,854.5 718.5,859.5C 717.5,859.5 716.5,859.5 715.5,859.5C 715.5,854.5 715.5,849.5 715.5,844.5 Z"/></g>
<g><path style="opacity:1" fill="#c8efff" d="M 726.5,844.5 C 725.5,844.5 724.5,844.5 723.5,844.5C 723.5,849.5 723.5,854.5 723.5,859.5C 724.5,859.5 725.5,859.5 726.5,859.5C 726.183,855.298 726.517,851.298 727.5,847.5C 727.5,851.833 727.5,856.167 727.5,860.5C 725.833,860.5 724.167,860.5 722.5,860.5C 722.5,854.833 722.5,849.167 722.5,843.5C 724.099,843.232 725.432,843.566 726.5,844.5 Z"/></g>
<g><path style="opacity:1" fill="#f3fbff" d="M 733.5,860.5 C 733.666,856.154 733.499,851.821 733,847.5C 731.057,846.193 729.223,846.193 727.5,847.5C 726.517,851.298 726.183,855.298 726.5,859.5C 725.5,859.5 724.5,859.5 723.5,859.5C 723.5,854.5 723.5,849.5 723.5,844.5C 724.5,844.5 725.5,844.5 726.5,844.5C 730.197,842.923 733.697,843.256 737,845.5C 737.499,850.489 737.666,855.489 737.5,860.5C 736.167,860.5 734.833,860.5 733.5,860.5 Z"/></g>
<g><path style="opacity:1" fill="#f1faff" d="M 752.5,844.5 C 753.5,844.5 754.5,844.5 755.5,844.5C 755.5,850.833 755.5,857.167 755.5,863.5C 754.547,865.61 752.881,866.777 750.5,867C 747.961,867.796 745.628,867.629 743.5,866.5C 745.156,864.94 747.156,863.94 749.5,863.5C 750.478,863.189 751.145,862.522 751.5,861.5C 741.913,860.84 738.746,855.84 742,846.5C 744.967,843.386 748.467,842.72 752.5,844.5 Z"/></g>
<g><path style="opacity:1" fill="#ace7ff" d="M 752.5,844.5 C 753.568,843.566 754.901,843.232 756.5,843.5C 756.824,850.354 756.491,857.021 755.5,863.5C 755.5,857.167 755.5,850.833 755.5,844.5C 754.5,844.5 753.5,844.5 752.5,844.5 Z"/></g>
<g><path style="opacity:1" fill="#e9f8ff" d="M 771.5,843.5 C 774.32,843.248 776.986,843.748 779.5,845C 780.337,846.011 780.67,847.178 780.5,848.5C 778.027,848.201 775.86,847.201 774,845.5C 771.5,846.333 771,847.833 772.5,850C 775.822,850.059 778.656,851.226 781,853.5C 781.825,855.701 781.325,857.534 779.5,859C 776.298,860.483 772.964,860.817 769.5,860C 767.963,858.89 767.297,857.39 767.5,855.5C 770.261,856.92 773.261,857.587 776.5,857.5C 776.67,856.178 776.337,855.011 775.5,854C 772.692,853.402 770.192,852.235 768,850.5C 766.689,846.738 767.856,844.405 771.5,843.5 Z"/></g>
<g><path style="opacity:1" fill="#a8e6ff" d="M 788.5,844.5 C 787.5,844.5 786.5,844.5 785.5,844.5C 785.5,851.833 785.5,859.167 785.5,866.5C 786.5,866.5 787.5,866.5 788.5,866.5C 788.5,864.167 788.5,861.833 788.5,859.5C 789.791,859.263 790.791,859.596 791.5,860.5C 789.656,862.279 788.99,864.612 789.5,867.5C 787.833,867.5 786.167,867.5 784.5,867.5C 784.5,859.5 784.5,851.5 784.5,843.5C 786.099,843.232 787.432,843.566 788.5,844.5 Z"/></g>
<g><path style="opacity:1" fill="#f2faff" d="M 791.5,860.5 C 790.791,859.596 789.791,859.263 788.5,859.5C 788.5,861.833 788.5,864.167 788.5,866.5C 787.5,866.5 786.5,866.5 785.5,866.5C 785.5,859.167 785.5,851.833 785.5,844.5C 786.5,844.5 787.5,844.5 788.5,844.5C 798.82,842.68 802.32,847.014 799,857.5C 797.152,860.041 794.652,861.041 791.5,860.5 Z"/></g>
<g><path style="opacity:1" fill="#ecf9ff" d="M 807.5,843.5 C 810.602,843.154 813.435,843.821 816,845.5C 816.221,850.22 816.721,854.887 817.5,859.5C 814.212,859.44 810.878,859.773 807.5,860.5C 802.616,859.516 801.283,856.683 803.5,852C 806.351,850.711 809.351,850.211 812.5,850.5C 812.915,848.052 811.915,846.719 809.5,846.5C 807.666,847.754 805.666,848.421 803.5,848.5C 803.408,845.6 804.741,843.933 807.5,843.5 Z"/></g>
<g><path style="opacity:1" fill="#edf9ff" d="M 823.5,843.5 C 826.187,843.336 828.854,843.503 831.5,844C 833.607,845.264 834.607,847.097 834.5,849.5C 831.761,849.293 829.427,848.293 827.5,846.5C 826.558,846.608 825.725,846.941 825,847.5C 824.333,850.167 824.333,852.833 825,855.5C 825.739,856.574 826.739,857.241 828,857.5C 829.694,855.571 831.861,854.571 834.5,854.5C 834.703,856.39 834.037,857.89 832.5,859C 824.486,862.812 820.486,860.312 820.5,851.5C 820.078,848.218 821.078,845.552 823.5,843.5 Z"/></g>
<g><path style="opacity:1" fill="#eaf8ff" d="M 840.5,843.5 C 848.703,842.076 852.37,845.409 851.5,853.5C 848.102,853.18 844.768,853.513 841.5,854.5C 843.494,857.568 846.161,858.235 849.5,856.5C 850.739,858.007 850.405,859.174 848.5,860C 841.12,861.817 837.12,858.984 836.5,851.5C 836.782,848.269 838.115,845.602 840.5,843.5 Z"/></g>
<g><path style="opacity:1" fill="#33c4ff" d="M 581.5,846.5 C 583.167,846.5 584.833,846.5 586.5,846.5C 586.5,850.167 586.5,853.833 586.5,857.5C 584.234,857.859 582.401,857.192 581,855.5C 580.366,852.445 580.532,849.445 581.5,846.5 Z"/></g>
<g><path style="opacity:1" fill="#36c5ff" d="M 746.5,846.5 C 748.144,846.286 749.644,846.62 751,847.5C 751.784,850.76 751.617,853.927 750.5,857C 748.888,857.72 747.388,857.554 746,856.5C 745.253,853.076 745.42,849.743 746.5,846.5 Z"/></g>
<g><path style="opacity:1" fill="#36c5ff" d="M 790.5,846.5 C 794.741,845.909 796.407,847.742 795.5,852C 796.239,856.76 794.239,858.593 789.5,857.5C 789.244,853.731 789.577,850.064 790.5,846.5 Z"/></g>
<g><path style="opacity:1" fill="#59ceff" d="M 727.5,847.5 C 729.223,846.193 731.057,846.193 733,847.5C 733.499,851.821 733.666,856.154 733.5,860.5C 731.57,856.627 730.903,852.294 731.5,847.5C 730.167,847.5 728.833,847.5 727.5,847.5 Z"/></g>
<g><path style="opacity:1" fill="#58ceff" d="M 842.5,846.5 C 845.95,845.756 847.616,847.09 847.5,850.5C 845.5,850.5 843.5,850.5 841.5,850.5C 841.433,849.041 841.766,847.708 842.5,846.5 Z"/></g>
<g><path style="opacity:1" fill="#4ccaff" d="M 599.5,852.5 C 601.167,852.5 602.833,852.5 604.5,852.5C 605.085,855.261 604.085,856.927 601.5,857.5C 598.353,856.87 597.687,855.203 599.5,852.5 Z"/></g>
<g><path style="opacity:1" fill="#4cc9ff" d="M 629.5,852.5 C 630.833,852.5 632.167,852.5 633.5,852.5C 634.085,855.261 633.085,856.927 630.5,857.5C 626.872,856.564 626.539,854.898 629.5,852.5 Z"/></g>
<g><path style="opacity:1" fill="#41c7ff" d="M 690.5,852.5 C 691.833,852.5 693.167,852.5 694.5,852.5C 695.167,856.5 693.5,858.167 689.5,857.5C 689.366,855.708 689.699,854.042 690.5,852.5 Z"/></g>
<g><path style="opacity:1" fill="#4ccaff" d="M 808.5,852.5 C 809.833,852.5 811.167,852.5 812.5,852.5C 813.085,855.261 812.085,856.927 809.5,857.5C 806.031,856.431 805.698,854.764 808.5,852.5 Z"/></g>
<g><path style="opacity:1" fill="#a5e5ff" d="M 749.5,863.5 C 747.156,863.94 745.156,864.94 743.5,866.5C 742.596,865.791 742.263,864.791 742.5,863.5C 744.833,863.5 747.167,863.5 749.5,863.5 Z"/></g>
</svg>
