<?xml version="1.0" standalone="no"?>
<!DOCTYPE svg PUBLIC "-//W3C//DTD SVG 20010904//EN"
 "http://www.w3.org/TR/2001/REC-SVG-20010904/DTD/svg10.dtd">
<svg version="1.0" xmlns="http://www.w3.org/2000/svg"
 width="750.000000pt" height="750.000000pt" viewBox="0 0 750.000000 750.000000"
 preserveAspectRatio="xMidYMid meet">

<g transform="translate(0.000000,750.000000) scale(0.100000,-0.100000)"
fill="#000000" stroke="none">
<path d="M1892 6898 c-89 -148 -1816 -3126 -1819 -3138 -2 -8 410 -726 915
-1595 l918 -1580 1845 -2 1844 -2 900 1551 c495 852 909 1567 921 1587 l21 36
-921 1585 -922 1585 -1841 3 -1841 2 -20 -32z m2118 -184 c932 -80 1701 -149
1708 -152 14 -7 287 -580 280 -587 -2 -3 -242 133 -533 301 -425 245 -531 302
-540 292 -23 -26 -206 -348 -201 -356 2 -4 364 -214 805 -467 l800 -460 30
-65 c16 -36 54 -118 85 -183 l56 -119 -33 7 c-131 26 -208 63 -603 291 -166
95 -339 192 -385 214 -111 53 -210 74 -281 59 -181 -38 -334 -186 -487 -470
-59 -111 -94 -206 -111 -306 -10 -59 -9 -85 4 -152 18 -95 75 -213 138 -284
l43 -48 129 151 128 151 -20 22 c-40 44 -64 107 -64 170 0 48 7 73 36 131 40
81 103 161 149 190 47 29 119 26 190 -8 32 -16 61 -34 63 -41 8 -19 -39 -190
-101 -375 -99 -294 -119 -442 -76 -565 73 -206 309 -344 524 -305 130 23 256
107 337 224 48 71 107 204 119 270 14 75 14 207 1 276 -6 29 -8 56 -5 58 3 3
27 0 53 -6 26 -6 65 -14 87 -18 l40 -6 78 136 c44 75 82 136 86 136 12 0 642
-1352 637 -1366 -6 -16 -1943 -2764 -1962 -2784 -12 -13 -121 -5 -892 62
l-877 76 -699 401 c-384 221 -701 401 -705 401 -6 -1 -211 -353 -211 -363 0
-3 133 -81 295 -174 162 -92 290 -170 284 -171 -8 -3 -632 48 -635 52 -3 3
-1445 3077 -1450 3090 -6 17 1961 2816 1979 2816 7 0 775 -65 1707 -146z
m1802 -1956 c122 -82 158 -145 158 -274 0 -104 -28 -175 -95 -240 -40 -40 -63
-54 -105 -64 -149 -36 -276 73 -255 219 7 50 6 47 64 241 22 74 45 154 51 178
l11 43 57 -32 c31 -18 83 -50 114 -71z"/>
<path d="M2397 6208 c-41 -56 -1519 -2251 -1523 -2262 -2 -6 240 -175 539
-376 298 -201 556 -379 572 -396 32 -34 562 -396 582 -398 9 -1 1563 2285
1563 2300 0 1 -116 80 -257 175 -142 95 -269 185 -283 199 -22 23 -1153 790
-1164 790 -3 0 -16 -15 -29 -32z m317 -184 c143 -97 262 -178 264 -179 2 -2
-821 -1229 -838 -1248 -3 -4 -51 19 -105 52 -54 33 -101 58 -106 56 -12 -8
-479 -704 -479 -714 0 -6 37 -38 83 -72 45 -34 86 -65 91 -70 4 -4 -33 -68
-84 -143 l-91 -136 -262 177 c-144 97 -268 182 -276 188 -11 11 118 208 750
1144 536 795 767 1130 777 1126 8 -3 132 -84 276 -181z m-694 -1731 c-33 -35
-60 -68 -60 -72 0 -5 11 -16 25 -25 80 -52 69 -52 105 4 18 28 42 75 54 104
l22 54 57 -37 56 -38 -40 -39 c-51 -49 -112 -131 -105 -142 2 -4 34 -28 70
-52 36 -25 66 -47 66 -50 -1 -3 -11 -18 -24 -34 l-24 -29 -67 47 c-36 25 -69
46 -73 46 -9 0 -74 -111 -96 -162 -8 -21 -17 -38 -20 -38 -3 0 -29 16 -57 36
l-50 37 37 36 c41 40 119 140 113 145 -2 1 -25 17 -51 35 l-48 32 -20 -33
c-11 -18 -30 -56 -41 -85 l-22 -51 -53 35 c-30 20 -54 37 -54 38 0 0 22 24 49
52 83 87 84 86 -7 130 l-78 38 36 51 36 51 59 -53 c33 -30 65 -53 70 -51 6 1
27 37 49 79 l38 77 54 -36 54 -36 -60 -64z"/>
<path d="M4393 4115 c-192 -54 -344 -199 -467 -442 -111 -222 -121 -441 -29
-643 115 -251 451 -491 766 -546 168 -30 350 2 486 84 96 58 175 135 240 232
107 160 163 304 178 455 13 140 -53 328 -164 465 -97 119 -80 124 -235 -62
l-134 -161 53 -54 c102 -106 127 -208 82 -328 -28 -74 -112 -165 -181 -196
-67 -30 -186 -32 -268 -5 -145 48 -340 167 -425 257 -68 73 -90 127 -90 224 0
89 26 159 85 234 66 81 191 119 291 88 l46 -14 70 201 c70 198 71 201 49 210
-40 16 -296 17 -353 1z"/>
<path d="M3665 2644 c-118 -29 -161 -43 -226 -75 -306 -152 -522 -546 -480
-875 16 -129 51 -221 124 -329 141 -210 330 -337 607 -411 46 -12 101 -17 185
-17 102 1 132 5 200 28 137 45 247 117 361 237 124 129 200 280 237 466 19 95
20 112 8 205 -25 199 -92 346 -218 478 -121 126 -250 208 -420 265 -66 23 -99
27 -218 30 -77 1 -149 1 -160 -2z m242 -443 c161 -63 317 -191 368 -303 51
-112 52 -208 5 -315 -105 -233 -362 -295 -628 -152 -228 122 -336 279 -319
464 15 156 135 296 290 336 18 4 70 7 117 5 66 -3 103 -11 167 -35z"/>
</g>
</svg>
