<?xml version="1.0" standalone="no"?>
<!DOCTYPE svg PUBLIC "-//W3C//DTD SVG 20010904//EN"
 "http://www.w3.org/TR/2001/REC-SVG-20010904/DTD/svg10.dtd">
<svg version="1.0" xmlns="http://www.w3.org/2000/svg"
 width="60.000000pt" height="60.000000pt" viewBox="0 0 60.000000 60.000000"
 preserveAspectRatio="xMidYMid meet">

<g transform="translate(0.000000,60.000000) scale(0.100000,-0.100000)"
fill="#000000" stroke="none">
<path d="M122 498 c-16 -29 -40 -71 -52 -93 -33 -57 -12 -33 54 63 37 53 52
82 43 82 -8 0 -28 -24 -45 -52z"/>
<path d="M241 546 c2 -2 53 -7 113 -10 76 -5 106 -4 101 3 -4 7 -47 11 -112
11 -59 0 -104 -2 -102 -4z"/>
<path d="M387 514 c-13 -13 -7 -19 58 -54 58 -32 83 -55 71 -67 -2 -3 -26 8
-52 23 l-47 28 -23 -28 c-25 -28 -31 -60 -14 -71 9 -6 14 8 11 29 -2 11 19 36
31 36 5 0 6 -18 3 -43 -5 -34 -3 -46 10 -57 20 -17 48 -3 54 26 4 23 20 44 33
44 5 0 19 -23 32 -52 14 -31 26 -47 30 -40 4 7 -15 50 -43 100 -43 74 -56 90
-93 106 -24 11 -46 21 -49 23 -3 2 -8 0 -12 -3z m90 -168 c-10 -25 -37 -19
-37 7 0 13 3 27 7 31 11 11 36 -21 30 -38z"/>
<path d="M184 365 c-32 -47 -56 -86 -53 -88 38 -31 80 -59 83 -56 22 29 116
172 116 177 0 9 -66 52 -79 52 -5 0 -35 -38 -67 -85z"/>
<path d="M330 310 c-11 -11 -20 -31 -20 -44 0 -29 43 -66 76 -66 28 0 57 39
52 72 -3 26 -22 27 -24 0 -2 -38 -5 -42 -27 -42 -13 0 -32 9 -43 21 -19 21
-18 21 4 39 23 19 29 40 12 40 -5 0 -19 -9 -30 -20z"/>
<path d="M16 312 c-6 -11 88 -192 100 -192 2 0 -13 35 -34 78 -21 42 -43 88
-48 101 -7 17 -13 21 -18 13z"/>
<path d="M529 208 c-13 -18 -43 -61 -67 -95 -28 -41 -39 -63 -29 -63 7 0 39
43 70 95 56 96 67 122 26 63z"/>
<path d="M260 190 c-45 -45 -9 -116 57 -108 57 6 70 92 18 116 -36 17 -52 15
-75 -8z m72 -27 c22 -20 22 -27 3 -46 -30 -31 -92 16 -64 49 15 19 38 18 61
-3z"/>
<path d="M156 113 c-4 -4 3 -15 16 -25 l23 -18 -28 0 c-16 0 -26 -4 -22 -10 4
-6 49 -9 108 -9 75 1 90 3 57 8 -25 4 -66 19 -91 34 -50 30 -52 30 -63 20z"/>
</g>
</svg>
