<?xml version="1.0" encoding="UTF-8"?>
<!DOCTYPE svg PUBLIC "-//W3C//DTD SVG 1.1//EN" "http://www.w3.org/Graphics/SVG/1.1/DTD/svg11.dtd">
<svg xmlns="http://www.w3.org/2000/svg" version="1.1" width="60px" height="60px" style="shape-rendering:geometricPrecision; text-rendering:geometricPrecision; image-rendering:optimizeQuality; fill-rule:evenodd; clip-rule:evenodd" xmlns:xlink="http://www.w3.org/1999/xlink">
<g><path style="opacity:1" fill="#f8f8fa" d="M -0.5,-0.5 C 19.5,-0.5 39.5,-0.5 59.5,-0.5C 59.5,19.5 59.5,39.5 59.5,59.5C 39.5,59.5 19.5,59.5 -0.5,59.5C -0.5,39.5 -0.5,19.5 -0.5,-0.5 Z"/></g>
<g><path style="opacity:1" fill="#0b3599" d="M 22.5,4.5 C 27.1785,4.33418 31.8452,4.50085 36.5,5C 39.6565,5.74196 42.3232,7.24196 44.5,9.5C 40.7265,11.8112 38.3931,15.1445 37.5,19.5C 32.0115,16.1222 28.3448,17.4556 26.5,23.5C 20.1753,23.1516 16.5087,26.1516 15.5,32.5C 12.1667,31.1667 8.83333,31.1667 5.5,32.5C 3.39798,22.1937 6.73131,14.027 15.5,8C 17.9252,6.78739 20.2585,5.62073 22.5,4.5 Z"/></g>
<g><path style="opacity:1" fill="#2b409d" d="M 45.5,14.5 C 46.3764,14.3691 47.0431,14.7025 47.5,15.5C 44.5503,18.7647 45.217,20.2647 49.5,20C 50.0465,19.0754 50.7132,18.2421 51.5,17.5C 52.395,21.433 50.7283,22.933 46.5,22C 44.2854,19.7585 43.9521,17.2585 45.5,14.5 Z"/></g>
<g><path style="opacity:1" fill="#12369a" d="M 53.5,26.5 C 54.4731,28.9479 54.8064,31.6146 54.5,34.5C 53.962,36.1172 53.6287,37.7839 53.5,39.5C 40.5,35.8333 35.8333,40.5 39.5,53.5C 30.8926,55.5905 22.7259,54.5905 15,50.5C 17.6657,47.1394 19.3323,43.1394 20,38.5C 21,40.1667 22,41.8333 23,43.5C 24.803,42.6866 26.303,41.5199 27.5,40C 25.2643,36.7082 23.7643,33.2082 23,29.5C 24,28.1667 25,28.1667 26,29.5C 27.8333,32.5 29.6667,35.5 31.5,38.5C 33.0534,37.561 34.3867,36.3943 35.5,35C 33.7134,31.928 32.0467,28.7614 30.5,25.5C 31.8883,22.9211 33.3883,22.9211 35,25.5C 36.1662,28.5032 37.8328,31.1698 40,33.5C 41.586,32.624 43.086,31.624 44.5,30.5C 43.8333,29.5 43.1667,28.5 42.5,27.5C 42.8333,27.1667 43.1667,26.8333 43.5,26.5C 46.8639,27.826 50.1972,27.826 53.5,26.5 Z"/></g>
<g><path style="opacity:1" fill="#9ba0c1" d="M 53.5,26.5 C 53.56,25.9569 53.8933,25.6236 54.5,25.5C 55.8032,28.6447 55.8032,31.6447 54.5,34.5C 54.8064,31.6146 54.4731,28.9479 53.5,26.5 Z"/></g>
<g><path style="opacity:1" fill="#0f3699" d="M 7.5,37.5 C 12.1225,36.4082 13.9558,38.0748 13,42.5C 8.32522,44.334 6.49189,42.6673 7.5,37.5 Z"/></g>
</svg>
