<?xml version="1.0" encoding="UTF-8"?>
<!DOCTYPE svg PUBLIC "-//W3C//DTD SVG 1.1//EN" "http://www.w3.org/Graphics/SVG/1.1/DTD/svg11.dtd">
<svg xmlns="http://www.w3.org/2000/svg" version="1.1" width="1350px" height="1350px" style="shape-rendering:geometricPrecision; text-rendering:geometricPrecision; image-rendering:optimizeQuality; fill-rule:evenodd; clip-rule:evenodd" xmlns:xlink="http://www.w3.org/1999/xlink">
<g><path style="opacity:1" fill="#fd9b45" d="M 649.5,31.5 C 821.98,27.5907 972.98,81.7574 1102.5,194C 1137.83,226.328 1170.67,260.828 1201,297.5C 1307.53,437.562 1351.53,595.562 1333,771.5C 1306.62,962.882 1215.12,1114.05 1058.5,1225C 927.446,1312.85 783.113,1349.18 625.5,1334C 488.803,1318.12 369.136,1265.12 266.5,1175C 231.499,1143 198.999,1108.84 169,1072.5C 59.8131,929.856 15.8131,768.856 37,589.5C 62.5639,417.135 142.731,276.635 277.5,168C 386.858,83.5255 510.858,38.0255 649.5,31.5 Z"/></g>
<g><path style="opacity:1" fill="#fee0c5" d="M 1105.5,587.5 C 1097.83,587.5 1090.17,587.5 1082.5,587.5C 1082.5,652.5 1082.5,717.5 1082.5,782.5C 1089.5,782.5 1096.5,782.5 1103.5,782.5C 1096.35,783.492 1089.02,783.825 1081.5,783.5C 1081.5,717.833 1081.5,652.167 1081.5,586.5C 1089.68,586.174 1097.68,586.508 1105.5,587.5 Z"/></g>
<g><path style="opacity:1" fill="#fffefd" d="M 1105.5,587.5 C 1105.33,611.502 1105.5,635.502 1106,659.5C 1118.71,645.262 1134.54,639.762 1153.5,643C 1172.72,646.872 1185.88,658.039 1193,676.5C 1197.27,687.953 1199.1,699.786 1198.5,712C 1200.22,732.816 1195.06,751.649 1183,768.5C 1170.28,782.74 1154.45,788.24 1135.5,785C 1122.81,783.408 1112.64,777.574 1105,767.5C 1104.09,772.464 1103.59,777.464 1103.5,782.5C 1096.5,782.5 1089.5,782.5 1082.5,782.5C 1082.5,717.5 1082.5,652.5 1082.5,587.5C 1090.17,587.5 1097.83,587.5 1105.5,587.5 Z"/></g>
<g><path style="opacity:1" fill="#fffdfc" d="M 322.5,642.5 C 322.5,645.167 322.5,647.833 322.5,650.5C 314.5,650.5 306.5,650.5 298.5,650.5C 297.127,628.626 285.46,616.793 263.5,615C 248.836,613.037 236.003,616.87 225,626.5C 218.897,635.925 217.897,645.925 222,656.5C 227.767,664.253 235.267,669.753 244.5,673C 258.608,677.36 272.608,682.027 286.5,687C 320.896,701.609 331.063,726.109 317,760.5C 305.558,775.308 290.392,783.475 271.5,785C 242.969,789.335 218.803,781.169 199,760.5C 192.086,751.335 188.586,741.002 188.5,729.5C 196.833,729.5 205.167,729.5 213.5,729.5C 213.369,741.739 218.369,751.239 228.5,758C 248.502,767.939 268.502,767.939 288.5,758C 298.277,748.73 301.11,737.563 297,724.5C 292.246,716.524 285.412,711.024 276.5,708C 258.818,702.581 241.485,696.248 224.5,689C 196.358,674.243 188.191,652.077 200,622.5C 210.808,606.337 225.975,597.17 245.5,595C 270.938,591.642 292.771,598.808 311,616.5C 317.281,624.064 321.115,632.731 322.5,642.5 Z"/></g>
<g><path style="opacity:1" fill="#fffdfc" d="M 651.5,654.5 C 643.903,656.467 635.903,657.134 627.5,656.5C 621.785,622.12 601.785,608.953 567.5,617C 548.305,625.554 537.472,640.388 535,661.5C 532.826,682.537 533.159,703.537 536,724.5C 547.516,763.241 572.016,774.741 609.5,759C 620.336,750.161 626.002,738.661 626.5,724.5C 634.833,724.5 643.167,724.5 651.5,724.5C 648.127,759.373 629.127,779.54 594.5,785C 550.8,788.954 523.3,769.787 512,727.5C 507.782,703.55 507.448,679.55 511,655.5C 523.593,609.784 553.427,589.951 600.5,596C 630.86,603.859 647.86,623.359 651.5,654.5 Z"/></g>
<g><path style="opacity:1" fill="#fffefd" d="M 355.5,597.5 C 363.5,597.5 371.5,597.5 379.5,597.5C 379.333,627.835 379.5,658.168 380,688.5C 407.537,658.632 434.703,628.465 461.5,598C 471.5,597.333 481.5,597.333 491.5,598C 467.116,624.714 443.116,651.714 419.5,679C 445.251,713.828 471.251,748.495 497.5,783C 487.483,783.832 477.483,783.666 467.5,782.5C 446.186,753.858 424.519,725.525 402.5,697.5C 394.848,704.652 387.348,711.985 380,719.5C 379.5,740.831 379.333,762.164 379.5,783.5C 371.5,783.5 363.5,783.5 355.5,783.5C 355.5,721.5 355.5,659.5 355.5,597.5 Z"/></g>
<g><path style="opacity:1" fill="#fffefd" d="M 847.5,649.5 C 848.651,644.35 848.817,639.016 848,633.5C 847.487,634.527 846.987,635.527 846.5,636.5C 827.013,684.812 807.513,733.145 788,781.5C 784.936,782.783 781.603,783.45 778,783.5C 774.833,783.167 771.667,782.833 768.5,782.5C 748.63,734.218 728.964,685.885 709.5,637.5C 709.013,636.527 708.513,635.527 708,634.5C 707.183,640.016 707.349,645.35 708.5,650.5C 710.03,694.818 710.696,739.151 710.5,783.5C 702.167,783.5 693.833,783.5 685.5,783.5C 685.5,721.5 685.5,659.5 685.5,597.5C 696.187,597.168 706.854,597.501 717.5,598.5C 737.943,648.387 758.11,698.387 778,748.5C 798,698.5 818,648.5 838,598.5C 848.752,597.513 859.585,597.18 870.5,597.5C 870.5,659.5 870.5,721.5 870.5,783.5C 862.5,783.5 854.5,783.5 846.5,783.5C 846.27,738.826 846.604,694.159 847.5,649.5 Z"/></g>
<g><path style="opacity:1" fill="#fffefd" d="M 914.5,597.5 C 935.836,597.333 957.169,597.5 978.5,598C 1018.9,605.404 1042.07,629.571 1048,670.5C 1051.72,696.414 1048.05,721.08 1037,744.5C 1021.75,768.886 999.582,781.553 970.5,782.5C 951.833,782.5 933.167,782.5 914.5,782.5C 914.5,720.833 914.5,659.167 914.5,597.5 Z"/></g>
<g><path style="opacity:1" fill="#fd9b45" d="M 938.5,617.5 C 953.203,617.149 967.87,617.649 982.5,619C 1000.3,623.467 1012.47,634.301 1019,651.5C 1026.28,676.822 1026.28,702.155 1019,727.5C 1011.61,746.231 998.107,757.731 978.5,762C 965.171,762.5 951.837,762.667 938.5,762.5C 938.5,714.167 938.5,665.833 938.5,617.5 Z"/></g>
<g><path style="opacity:1" fill="#fec99b" d="M 847.5,649.5 C 847.818,644.968 847.485,640.634 846.5,636.5C 846.987,635.527 847.487,634.527 848,633.5C 848.817,639.016 848.651,644.35 847.5,649.5 Z"/></g>
<g><path style="opacity:1" fill="#fec797" d="M 709.5,637.5 C 708.515,641.634 708.182,645.968 708.5,650.5C 707.349,645.35 707.183,640.016 708,634.5C 708.513,635.527 709.013,636.527 709.5,637.5 Z"/></g>
<g><path style="opacity:1" fill="#fecca1" d="M 322.5,642.5 C 323.477,645.287 323.81,648.287 323.5,651.5C 314.983,651.826 306.65,651.493 298.5,650.5C 306.5,650.5 314.5,650.5 322.5,650.5C 322.5,647.833 322.5,645.167 322.5,642.5 Z"/></g>
<g><path style="opacity:1" fill="#feca9d" d="M 651.5,654.5 C 652.404,655.209 652.737,656.209 652.5,657.5C 643.983,657.826 635.65,657.493 627.5,656.5C 635.903,657.134 643.903,656.467 651.5,654.5 Z"/></g>
<g><path style="opacity:1" fill="#fd9b45" d="M 1130.5,662.5 C 1158,661.495 1172.84,674.828 1175,702.5C 1176.53,720.016 1173.53,736.683 1166,752.5C 1152.13,766.759 1136.3,769.259 1118.5,760C 1113.2,755.701 1109.03,750.534 1106,744.5C 1105.33,724.167 1105.33,703.833 1106,683.5C 1111.31,673.011 1119.48,666.011 1130.5,662.5 Z"/></g>
<g><path style="opacity:1" fill="#fedec2" d="M 914.5,597.5 C 914.5,659.167 914.5,720.833 914.5,782.5C 933.167,782.5 951.833,782.5 970.5,782.5C 951.674,783.497 932.674,783.83 913.5,783.5C 913.168,721.331 913.501,659.331 914.5,597.5 Z"/></g>
</svg>
