<?xml version="1.0" encoding="UTF-8"?>
<!DOCTYPE svg PUBLIC "-//W3C//DTD SVG 1.1//EN" "http://www.w3.org/Graphics/SVG/1.1/DTD/svg11.dtd">
<svg xmlns="http://www.w3.org/2000/svg" version="1.1" width="1350px" height="1350px" style="shape-rendering:geometricPrecision; text-rendering:geometricPrecision; image-rendering:optimizeQuality; fill-rule:evenodd; clip-rule:evenodd" xmlns:xlink="http://www.w3.org/1999/xlink">
<g><path style="opacity:0.999" fill="#00bfff" d="M 649.5,31.5 C 850.674,28.0452 1019.17,99.7119 1155,246.5C 1285.24,398.366 1336.91,574.033 1310,773.5C 1284.44,925.484 1214.94,1052.98 1101.5,1156C 947.521,1287.27 769.854,1338.27 568.5,1309C 395.806,1277.29 257.306,1191.46 153,1051.5C 52.5151,908.212 14.5151,749.545 39,575.5C 69.8712,396.471 158.371,253.971 304.5,148C 408.2,76.1549 523.2,37.3216 649.5,31.5 Z"/></g>
<g><path style="opacity:1" fill="#fcfeff" d="M 643.5,618.5 C 657.5,618.5 671.5,618.5 685.5,618.5C 685.5,653.167 685.5,687.833 685.5,722.5C 694.167,722.5 702.833,722.5 711.5,722.5C 711.5,726.5 711.5,730.5 711.5,734.5C 688.833,734.5 666.167,734.5 643.5,734.5C 643.5,730.5 643.5,726.5 643.5,722.5C 652.833,722.5 662.167,722.5 671.5,722.5C 671.5,691.833 671.5,661.167 671.5,630.5C 662.167,630.5 652.833,630.5 643.5,630.5C 643.5,626.5 643.5,622.5 643.5,618.5 Z"/></g>
<g><path style="opacity:1" fill="#f8fdff" d="M 581.5,622.5 C 590.649,622.156 594.149,626.489 592,635.5C 588.743,638.428 584.909,639.262 580.5,638C 576.788,635.442 575.622,631.942 577,627.5C 578.366,625.638 579.866,623.972 581.5,622.5 Z"/></g>
<g><path style="opacity:1" fill="#fbfeff" d="M 169.5,624.5 C 196.5,624.5 223.5,624.5 250.5,624.5C 250.5,628.5 250.5,632.5 250.5,636.5C 239.167,636.5 227.833,636.5 216.5,636.5C 216.5,669.167 216.5,701.833 216.5,734.5C 211.833,734.5 207.167,734.5 202.5,734.5C 202.5,701.833 202.5,669.167 202.5,636.5C 191.679,635.505 180.679,635.172 169.5,635.5C 169.5,631.833 169.5,628.167 169.5,624.5 Z"/></g>
<g><path style="opacity:1" fill="#81dfff" d="M 860.5,624.5 C 849.5,624.5 838.5,624.5 827.5,624.5C 827.5,661.167 827.5,697.833 827.5,734.5C 826.502,697.67 826.168,660.67 826.5,623.5C 838.012,623.172 849.346,623.505 860.5,624.5 Z"/></g>
<g><path style="opacity:1" fill="#fdfeff" d="M 860.5,624.5 C 876.694,624.005 888.194,631.005 895,645.5C 897.728,659.834 892.561,670.167 879.5,676.5C 899.378,686.306 903.878,700.972 893,720.5C 886.253,728.202 877.753,732.702 867.5,734C 854.171,734.5 840.837,734.667 827.5,734.5C 827.5,697.833 827.5,661.167 827.5,624.5C 838.5,624.5 849.5,624.5 860.5,624.5 Z"/></g>
<g><path style="opacity:1" fill="#fdfeff" d="M 474.5,633.5 C 478.833,633.5 483.167,633.5 487.5,633.5C 487.177,640.022 487.51,646.355 488.5,652.5C 498.833,652.5 509.167,652.5 519.5,652.5C 519.5,656.167 519.5,659.833 519.5,663.5C 509.167,663.5 498.833,663.5 488.5,663.5C 488.041,681.236 488.541,698.902 490,716.5C 491.892,720.058 494.725,722.558 498.5,724C 505.684,724.482 512.684,723.649 519.5,721.5C 521.278,724.946 522.278,728.613 522.5,732.5C 512.664,735.148 502.664,735.981 492.5,735C 482.484,732.315 476.651,725.815 475,715.5C 474.5,698.17 474.333,680.837 474.5,663.5C 467.167,663.5 459.833,663.5 452.5,663.5C 452.5,659.833 452.5,656.167 452.5,652.5C 459.833,652.5 467.167,652.5 474.5,652.5C 474.5,646.167 474.5,639.833 474.5,633.5 Z"/></g>
<g><path style="opacity:1" fill="#d2f3ff" d="M 474.5,633.5 C 478.97,632.514 483.637,632.181 488.5,632.5C 488.5,639.167 488.5,645.833 488.5,652.5C 487.51,646.355 487.177,640.022 487.5,633.5C 483.167,633.5 478.833,633.5 474.5,633.5 Z"/></g>
<g><path style="opacity:1" fill="#c8f1ff" d="M 169.5,624.5 C 169.5,628.167 169.5,631.833 169.5,635.5C 180.679,635.172 191.679,635.505 202.5,636.5C 191.167,636.5 179.833,636.5 168.5,636.5C 168.183,632.298 168.517,628.298 169.5,624.5 Z"/></g>
<g><path style="opacity:1" fill="#06bfff" d="M 841.5,636.5 C 850.506,636.334 859.506,636.5 868.5,637C 880.999,641.834 884.499,650.334 879,662.5C 875.808,667.347 871.308,670.014 865.5,670.5C 857.5,670.5 849.5,670.5 841.5,670.5C 841.5,659.167 841.5,647.833 841.5,636.5 Z"/></g>
<g><path style="opacity:1" fill="#fcfeff" d="M 295.5,651.5 C 319.159,649.009 333.326,659.343 338,682.5C 338.499,687.489 338.666,692.489 338.5,697.5C 319.167,697.5 299.833,697.5 280.5,697.5C 281.357,713.254 289.523,722.254 305,724.5C 314.894,724.873 322.894,721.206 329,713.5C 331.979,715.644 334.812,717.978 337.5,720.5C 326.495,733.559 312.495,738.392 295.5,735C 280.251,730.75 270.751,720.917 267,705.5C 263.477,686.737 268.643,670.904 282.5,658C 286.789,655.495 291.122,653.328 295.5,651.5 Z"/></g>
<g><path style="opacity:1" fill="#fcfeff" d="M 760.5,651.5 C 784.159,649.009 798.326,659.343 803,682.5C 803.499,687.489 803.666,692.489 803.5,697.5C 784.167,697.5 764.833,697.5 745.5,697.5C 746.357,713.254 754.523,722.254 770,724.5C 779.894,724.873 787.894,721.206 794,713.5C 796.979,715.644 799.812,717.978 802.5,720.5C 791.495,733.559 777.495,738.392 760.5,735C 745.251,730.75 735.751,720.917 732,705.5C 728.477,686.737 733.643,670.904 747.5,658C 751.789,655.495 756.122,653.328 760.5,651.5 Z"/></g>
<g><path style="opacity:1" fill="#fcfeff" d="M 934.5,674.5 C 930.167,674.5 925.833,674.5 921.5,674.5C 921.5,673.167 921.5,671.833 921.5,670.5C 925.541,660.64 932.875,654.474 943.5,652C 955.31,650.023 966.31,652.023 976.5,658C 980.551,661.721 983.384,666.221 985,671.5C 985.333,688.167 985.667,704.833 986,721.5C 986.418,725.934 987.251,730.267 988.5,734.5C 983.5,734.5 978.5,734.5 973.5,734.5C 973.196,731.478 972.696,728.478 972,725.5C 961.189,735.326 948.689,738.159 934.5,734C 919.059,725.672 915.226,713.505 923,697.5C 929.432,690.034 937.599,685.867 947.5,685C 955.493,684.5 963.493,684.334 971.5,684.5C 973.575,674.836 970.242,668.003 961.5,664C 951.751,660.564 943.251,662.398 936,669.5C 934.991,671.025 934.491,672.692 934.5,674.5 Z"/></g>
<g><path style="opacity:1" fill="#fcfeff" d="M 1038.5,651.5 C 1048.92,650.464 1058.92,651.964 1068.5,656C 1075.98,660.797 1079.98,667.63 1080.5,676.5C 1075.83,676.5 1071.17,676.5 1066.5,676.5C 1066.45,671.936 1064.45,668.436 1060.5,666C 1051.82,661.391 1043.15,661.391 1034.5,666C 1030.74,669.743 1029.57,674.243 1031,679.5C 1032.56,681.359 1034.39,682.859 1036.5,684C 1046.12,686.822 1055.79,689.489 1065.5,692C 1080.69,698.205 1084.86,708.705 1078,723.5C 1069.96,732.184 1059.96,736.184 1048,735.5C 1032.13,736.242 1020.8,729.575 1014,715.5C 1013.5,713.527 1013.34,711.527 1013.5,709.5C 1018.17,709.5 1022.83,709.5 1027.5,709.5C 1028.44,717.282 1032.78,722.116 1040.5,724C 1048.53,725.356 1056.2,724.356 1063.5,721C 1069.16,714.835 1068.83,709.169 1062.5,704C 1050.38,700.405 1038.38,696.405 1026.5,692C 1016.25,685.026 1013.75,675.859 1019,664.5C 1024.18,658.005 1030.68,653.672 1038.5,651.5 Z"/></g>
<g><path style="opacity:1" fill="#fcfeff" d="M 1132.5,651.5 C 1156.16,649.009 1170.33,659.343 1175,682.5C 1175.5,687.489 1175.67,692.489 1175.5,697.5C 1156.17,697.5 1136.83,697.5 1117.5,697.5C 1118.36,713.254 1126.52,722.254 1142,724.5C 1151.89,724.873 1159.89,721.206 1166,713.5C 1168.98,715.644 1171.81,717.978 1174.5,720.5C 1163.49,733.559 1149.49,738.392 1132.5,735C 1117.25,730.75 1107.75,720.917 1104,705.5C 1100.48,686.737 1105.64,670.904 1119.5,658C 1123.79,655.495 1128.12,653.328 1132.5,651.5 Z"/></g>
<g><path style="opacity:1" fill="#fcfeff" d="M 358.5,653.5 C 363.65,652.349 368.984,652.183 374.5,653C 381.667,662.833 388.833,672.667 396,682.5C 403.289,672.755 410.456,662.922 417.5,653C 422.864,652.171 428.198,652.337 433.5,653.5C 423.621,666.756 413.621,679.923 403.5,693C 413.833,706.667 424.167,720.333 434.5,734C 429.167,734.667 423.833,734.667 418.5,734C 411.366,723.566 403.866,713.4 396,703.5C 388.622,713.756 381.122,723.922 373.5,734C 368.167,734.667 362.833,734.667 357.5,734C 367.833,720.333 378.167,706.667 388.5,693C 378.637,679.649 368.637,666.482 358.5,653.5 Z"/></g>
<g><path style="opacity:1" fill="#fdfeff" d="M 577.5,722.5 C 578.497,703.341 578.83,684.007 578.5,664.5C 569.167,664.5 559.833,664.5 550.5,664.5C 550.5,660.5 550.5,656.5 550.5,652.5C 564.5,652.5 578.5,652.5 592.5,652.5C 592.5,675.833 592.5,699.167 592.5,722.5C 601.167,722.5 609.833,722.5 618.5,722.5C 618.5,726.5 618.5,730.5 618.5,734.5C 595.833,734.5 573.167,734.5 550.5,734.5C 550.5,730.5 550.5,726.5 550.5,722.5C 559.5,722.5 568.5,722.5 577.5,722.5 Z"/></g>
<g><path style="opacity:1" fill="#10c0ff" d="M 324.5,685.5 C 309.794,686.15 295.461,685.483 281.5,683.5C 286.209,664.646 297.542,658.813 315.5,666C 321.672,671.008 324.672,677.508 324.5,685.5 Z"/></g>
<g><path style="opacity:1" fill="#10c0ff" d="M 789.5,685.5 C 774.794,686.15 760.461,685.483 746.5,683.5C 751.209,664.646 762.542,658.813 780.5,666C 786.672,671.008 789.672,677.508 789.5,685.5 Z"/></g>
<g><path style="opacity:1" fill="#10c0ff" d="M 1161.5,685.5 C 1146.79,686.15 1132.46,685.483 1118.5,683.5C 1123.21,664.646 1134.54,658.813 1152.5,666C 1158.67,671.008 1161.67,677.508 1161.5,685.5 Z"/></g>
<g><path style="opacity:1" fill="#56d4ff" d="M 550.5,664.5 C 559.833,664.5 569.167,664.5 578.5,664.5C 578.83,684.007 578.497,703.341 577.5,722.5C 577.5,703.5 577.5,684.5 577.5,665.5C 568.318,665.827 559.318,665.493 550.5,664.5 Z"/></g>
<g><path style="opacity:1" fill="#7adcff" d="M 841.5,636.5 C 841.5,647.833 841.5,659.167 841.5,670.5C 849.5,670.5 857.5,670.5 865.5,670.5C 857.35,671.493 849.017,671.826 840.5,671.5C 840.172,659.655 840.505,647.988 841.5,636.5 Z"/></g>
<g><path style="opacity:1" fill="#c6f1ff" d="M 921.5,670.5 C 921.5,671.833 921.5,673.167 921.5,674.5C 925.833,674.5 930.167,674.5 934.5,674.5C 930.03,675.486 925.363,675.819 920.5,675.5C 920.216,673.585 920.549,671.919 921.5,670.5 Z"/></g>
<g><path style="opacity:1" fill="#a0e6ff" d="M 864.5,683.5 C 856.833,683.5 849.167,683.5 841.5,683.5C 841.5,696.5 841.5,709.5 841.5,722.5C 840.504,709.344 840.171,696.01 840.5,682.5C 848.684,682.174 856.684,682.508 864.5,683.5 Z"/></g>
<g><path style="opacity:1" fill="#06bfff" d="M 864.5,683.5 C 883.134,686.765 888.634,697.098 881,714.5C 877.312,718.428 872.812,720.928 867.5,722C 858.84,722.5 850.173,722.666 841.5,722.5C 841.5,709.5 841.5,696.5 841.5,683.5C 849.167,683.5 856.833,683.5 864.5,683.5 Z"/></g>
<g><path style="opacity:1" fill="#8fe2ff" d="M 281.5,683.5 C 295.461,685.483 309.794,686.15 324.5,685.5C 310.01,686.496 295.343,686.829 280.5,686.5C 280.263,685.209 280.596,684.209 281.5,683.5 Z"/></g>
<g><path style="opacity:1" fill="#8fe2ff" d="M 746.5,683.5 C 760.461,685.483 774.794,686.15 789.5,685.5C 775.01,686.496 760.343,686.829 745.5,686.5C 745.263,685.209 745.596,684.209 746.5,683.5 Z"/></g>
<g><path style="opacity:1" fill="#8fe2ff" d="M 1118.5,683.5 C 1132.46,685.483 1146.79,686.15 1161.5,685.5C 1147.01,686.496 1132.34,686.829 1117.5,686.5C 1117.26,685.209 1117.6,684.209 1118.5,683.5 Z"/></g>
<g><path style="opacity:1" fill="#14c0ff" d="M 950.5,694.5 C 957.5,694.5 964.5,694.5 971.5,694.5C 975.456,712.865 968.123,722.532 949.5,723.5C 936.184,723.028 931.018,716.361 934,703.5C 938.516,698.495 944.016,695.495 950.5,694.5 Z"/></g>
</svg>
