<?xml version="1.0" encoding="UTF-8"?>
<!DOCTYPE svg PUBLIC "-//W3C//DTD SVG 1.1//EN" "http://www.w3.org/Graphics/SVG/1.1/DTD/svg11.dtd">
<svg xmlns="http://www.w3.org/2000/svg" version="1.1" width="180px" height="180px" style="shape-rendering:geometricPrecision; text-rendering:geometricPrecision; image-rendering:optimizeQuality; fill-rule:evenodd; clip-rule:evenodd" xmlns:xlink="http://www.w3.org/1999/xlink">
<g><path style="opacity:0.444" fill="#89b242" d="M 86.5,-0.5 C 88.5,-0.5 90.5,-0.5 92.5,-0.5C 117.686,14.348 142.853,29.348 168,44.5C 168.825,74.8754 168.659,105.209 167.5,135.5C 142.273,149.941 117.273,164.608 92.5,179.5C 90.5,179.5 88.5,179.5 86.5,179.5C 61.7275,164.608 36.7275,149.941 11.5,135.5C 10.3414,105.209 10.1747,74.8754 11,44.5C 36.1473,29.348 61.314,14.348 86.5,-0.5 Z"/></g>
<g><path style="opacity:1" fill="#fcfcfc" d="M 88.5,3.5 C 113.693,17.6831 138.86,32.0164 164,46.5C 164.667,75.1667 164.667,103.833 164,132.5C 139.374,147.228 114.541,161.562 89.5,175.5C 64.459,161.562 39.6257,147.228 15,132.5C 14.3333,103.833 14.3333,75.1667 15,46.5C 39.4809,32.014 63.9809,17.6807 88.5,3.5 Z"/></g>
<g><path style="opacity:1" fill="#3778aa" d="M 120.5,59.5 C 119.448,61.256 117.781,61.9227 115.5,61.5C 114.21,60.9423 113.377,59.9423 113,58.5C 112.501,53.1771 112.334,47.8437 112.5,42.5C 111.022,42.762 109.689,42.4287 108.5,41.5C 110.743,40.5258 113.076,40.1924 115.5,40.5C 115.334,46.5092 115.501,52.5092 116,58.5C 117.356,59.3802 118.856,59.7135 120.5,59.5 Z"/></g>
<g><path style="opacity:1" fill="#1e689f" d="M 85.5,50.5 C 84.8333,48.8333 84.1667,47.1667 83.5,45.5C 82.0101,43.7202 80.0101,43.0535 77.5,43.5C 76.5269,45.9479 76.1936,48.6146 76.5,51.5C 78.604,51.2011 80.604,51.5344 82.5,52.5C 82.3764,53.1067 82.0431,53.44 81.5,53.5C 80.1667,53.5 78.8333,53.5 77.5,53.5C 77.0984,56.4766 76.0984,59.1433 74.5,61.5C 74.5,54.8333 74.5,48.1667 74.5,41.5C 78.3076,41.1632 81.9743,41.6632 85.5,43C 88.1402,45.6206 88.1402,48.1206 85.5,50.5 Z"/></g>
<g><path style="opacity:1" fill="#f3f7fa" d="M 77.5,43.5 C 80.0101,43.0535 82.0101,43.7202 83.5,45.5C 83.5,47.1667 83.5,48.8333 83.5,50.5C 81.5,50.5 79.5,50.5 77.5,50.5C 77.5,48.1667 77.5,45.8333 77.5,43.5 Z"/></g>
<g><path style="opacity:1" fill="#3c79aa" d="M 95.5,42.5 C 96.5,42.5 97.5,42.5 98.5,42.5C 98.5,43.8333 98.5,45.1667 98.5,46.5C 105.167,47.1667 105.167,47.8333 98.5,48.5C 98.5,52.1667 98.5,55.8333 98.5,59.5C 100.167,59.5 101.833,59.5 103.5,59.5C 103.5,60.5 103.5,61.5 103.5,62.5C 101.208,62.7564 99.0408,62.4231 97,61.5C 95.6326,57.3004 95.1326,52.9671 95.5,48.5C 90.1667,47.8333 90.1667,47.1667 95.5,46.5C 95.5,45.1667 95.5,43.8333 95.5,42.5 Z"/></g>
<g><path style="opacity:1" fill="#accadd" d="M 69.5,46.5 C 70.4881,51.6405 70.8214,56.9738 70.5,62.5C 69.209,62.7373 68.209,62.404 67.5,61.5C 69.4417,56.9443 70.1083,51.9443 69.5,46.5 Z"/></g>
<g><path style="opacity:1" fill="#226ba1" d="M 52.5,48.5 C 50.5,48.5 48.5,48.5 46.5,48.5C 46.185,52.3714 46.5184,56.0381 47.5,59.5C 49.0419,60.1635 50.7086,60.8302 52.5,61.5C 49.7185,62.952 47.2185,62.6187 45,60.5C 44.5012,56.5138 44.3345,52.5138 44.5,48.5C 39.1667,47.8333 39.1667,47.1667 44.5,46.5C 45.1667,41.1667 45.8333,41.1667 46.5,46.5C 49.0821,46.0254 51.0821,46.6921 52.5,48.5 Z"/></g>
<g><path style="opacity:1" fill="#c8dce9" d="M 52.5,48.5 C 51.0813,49.4511 49.4147,49.7845 47.5,49.5C 47.5,52.8333 47.5,56.1667 47.5,59.5C 46.5184,56.0381 46.185,52.3714 46.5,48.5C 48.5,48.5 50.5,48.5 52.5,48.5 Z"/></g>
<g><path style="opacity:1" fill="#689ec1" d="M 77.5,53.5 C 77.5,56.5 77.5,59.5 77.5,62.5C 76.209,62.7373 75.209,62.404 74.5,61.5C 76.0984,59.1433 77.0984,56.4766 77.5,53.5 Z"/></g>
<g><path style="opacity:1" fill="#84b0cd" d="M 138.5,50.5 C 139.451,51.9187 139.784,53.5853 139.5,55.5C 135.351,54.9197 131.684,55.5864 128.5,57.5C 127.596,56.791 127.263,55.791 127.5,54.5C 131.167,54.5 134.833,54.5 138.5,54.5C 138.5,53.1667 138.5,51.8333 138.5,50.5 Z"/></g>
<g><path style="opacity:1" fill="#3d7aab" d="M 77.5,43.5 C 77.5,45.8333 77.5,48.1667 77.5,50.5C 79.5,50.5 81.5,50.5 83.5,50.5C 83.5,48.8333 83.5,47.1667 83.5,45.5C 84.1667,47.1667 84.8333,48.8333 85.5,50.5C 85.1961,51.1499 84.8627,51.8165 84.5,52.5C 86.2967,54.9553 87.63,57.622 88.5,60.5C 88.1583,61.3382 87.4916,61.6716 86.5,61.5C 85.361,58.5664 83.6943,55.8997 81.5,53.5C 82.0431,53.44 82.3764,53.1067 82.5,52.5C 80.604,51.5344 78.604,51.2011 76.5,51.5C 76.1936,48.6146 76.5269,45.9479 77.5,43.5 Z"/></g>
<g><path style="opacity:1" fill="#2d71a5" d="M 69.5,46.5 C 70.1083,51.9443 69.4417,56.9443 67.5,61.5C 67.5654,61.0618 67.3988,60.7284 67,60.5C 64.3333,63.1667 61.6667,63.1667 59,60.5C 57.6211,55.964 57.1211,51.2973 57.5,46.5C 58.5,46.5 59.5,46.5 60.5,46.5C 60.3345,50.5138 60.5012,54.5138 61,58.5C 63.5219,61.3264 65.5219,60.9931 67,57.5C 66.9064,53.3673 67.7397,49.7006 69.5,46.5 Z"/></g>
<g><path style="opacity:1" fill="#2b6fa3" d="M 138.5,50.5 C 138.5,51.8333 138.5,53.1667 138.5,54.5C 134.833,54.5 131.167,54.5 127.5,54.5C 127.263,55.791 127.596,56.791 128.5,57.5C 128.953,58.4584 129.619,59.2917 130.5,60C 133.277,60.0511 135.943,60.2178 138.5,60.5C 131.018,64.689 126.684,62.5224 125.5,54C 125.793,47.3777 129.126,45.0444 135.5,47C 137.426,47.4224 138.426,48.5891 138.5,50.5 Z"/></g>
<g><path style="opacity:1" fill="#f3f7fa" d="M 130.5,48.5 C 133.278,48.0217 135.278,49.0217 136.5,51.5C 133.833,52.8333 131.167,52.8333 128.5,51.5C 129.193,50.4822 129.859,49.4822 130.5,48.5 Z"/></g>
<g><path style="opacity:1" fill="#8fb6d0" d="M 88.5,60.5 C 89.8847,61.3023 89.718,61.9689 88,62.5C 87.2352,62.4301 86.7352,62.0967 86.5,61.5C 87.4916,61.6716 88.1583,61.3382 88.5,60.5 Z"/></g>
<g><path style="opacity:1" fill="#86b0cd" d="M 120.5,59.5 C 121.404,60.209 121.737,61.209 121.5,62.5C 119.265,62.7947 117.265,62.4614 115.5,61.5C 117.781,61.9227 119.448,61.256 120.5,59.5 Z"/></g>
<g><path style="opacity:1" fill="#f5e7b5" d="M 50.5,71.5 C 50.5,93.8333 50.5,116.167 50.5,138.5C 49.1678,127.687 48.5011,116.521 48.5,105C 48.5011,93.4794 49.1678,82.3128 50.5,71.5 Z"/></g>
<g><path style="opacity:1" fill="#e8e8e8" d="M 52.5,74.5 C 63.6906,75.2075 74.6906,75.8742 85.5,76.5C 79.8624,77.3299 74.1958,77.8299 68.5,78C 66.5946,78.8261 66.2612,79.9928 67.5,81.5C 72.316,79.1992 77.316,78.8659 82.5,80.5C 91.5,79.8333 100.5,79.1667 109.5,78.5C 114.482,79.1192 119.482,79.7859 124.5,80.5C 120.878,81.3253 117.211,81.8253 113.5,82C 113.167,82.3333 112.833,82.6667 112.5,83C 114.167,83.3333 115.833,83.6667 117.5,84C 117.167,84.3333 116.833,84.6667 116.5,85C 95.1693,85.5 73.8359,85.6666 52.5,85.5C 52.5,81.8333 52.5,78.1667 52.5,74.5 Z"/></g>
<g><path style="opacity:1" fill="#e0e0e1" d="M 52.5,86.5 C 69.8247,87.3143 87.158,87.9809 104.5,88.5C 92.4681,89.108 80.4681,89.9413 68.5,91C 88.0309,91.7033 107.698,92.2033 127.5,92.5C 102.509,93.4998 77.5089,93.8331 52.5,93.5C 52.5,91.1667 52.5,88.8333 52.5,86.5 Z"/></g>
<g><path style="opacity:1" fill="#e4e4e4" d="M 53.5,99.5 C 59.5368,99.1707 65.5368,99.5041 71.5,100.5C 69.2338,101.314 66.9005,101.814 64.5,102C 71.5236,102.169 78.5236,102.669 85.5,103.5C 85.2907,104.086 84.9574,104.586 84.5,105C 81.5,105.333 78.5,105.667 75.5,106C 74.5504,108.432 74.5504,110.932 75.5,113.5C 69.2501,113.165 62.9167,112.998 56.5,113C 56.1667,112.667 55.8333,112.333 55.5,112C 58.3247,110.447 61.1581,110.281 64,111.5C 66.8557,111.129 69.6891,110.629 72.5,110C 66.8042,109.83 61.1376,109.33 55.5,108.5C 56.3279,107.585 57.3279,106.919 58.5,106.5C 60.3682,106.946 62.2015,107.279 64,107.5C 64.5,107 65,106.5 65.5,106C 62.1182,105.824 58.7848,105.324 55.5,104.5C 57.637,103.132 59.9703,102.132 62.5,101.5C 61.1095,101.013 59.4428,101.013 57.5,101.5C 55.6672,101.415 54.3339,100.748 53.5,99.5 Z"/></g>
<g><path style="opacity:1" fill="#ebebeb" d="M 53.5,118.5 C 58.5,118.5 63.5,118.5 68.5,118.5C 68.33,119.822 68.6634,120.989 69.5,122C 73.3728,122.27 77.2062,122.77 81,123.5C 84.0151,122.127 86.8485,122.46 89.5,124.5C 84.544,125.494 79.544,125.827 74.5,125.5C 74.7135,127.144 74.3802,128.644 73.5,130C 76.7577,130.212 79.9243,130.712 83,131.5C 89.7524,130.355 96.5857,130.189 103.5,131C 105.991,131.626 105.991,132.459 103.5,133.5C 86.5131,134.499 69.5131,134.833 52.5,134.5C 52.2175,129.073 52.5509,123.74 53.5,118.5 Z"/></g>
<g><path style="opacity:1" fill="#fdf9ed" d="M 50.5,71.5 C 51.4973,92.6601 51.8306,113.993 51.5,135.5C 77.5,135.5 103.5,135.5 129.5,135.5C 129.5,136.5 129.5,137.5 129.5,138.5C 103.167,138.5 76.8333,138.5 50.5,138.5C 50.5,116.167 50.5,93.8333 50.5,71.5 Z"/></g>
</svg>
